<?xml version="1.0" encoding="UTF-8"?>
<svg version="1.1" xmlns="http://www.w3.org/2000/svg" width="500" height="500">
<path d="M0 0 C0.98994965 0.00054382 1.97989929 0.00108765 2.99984741 0.00164795 C19.05496324 0.04209761 34.44764478 0.96884556 50.1875 4.375 C51.20457031 4.58930664 52.22164063 4.80361328 53.26953125 5.02441406 C68.03043827 8.21332699 82.17746417 12.7623425 96.1875 18.375 C96.96786621 18.68663086 97.74823242 18.99826172 98.55224609 19.31933594 C116.66321957 26.6758242 133.6720845 36.50076916 149.1875 48.375 C149.76016602 48.80635254 150.33283203 49.23770508 150.92285156 49.68212891 C159.83561708 56.40721562 168.14237968 63.63763054 176.1875 71.375 C176.67879395 71.84437988 177.17008789 72.31375977 177.67626953 72.79736328 C184.40342163 79.25316807 190.46990272 86.01571637 196.1875 93.375 C196.63706055 93.94283203 197.08662109 94.51066406 197.54980469 95.09570312 C209.78404491 110.58522866 219.95115202 127.4390152 228.1875 145.375 C228.6817749 146.44621094 228.6817749 146.44621094 229.18603516 147.5390625 C243.81047088 179.65547036 250.63538077 214.01516915 250.5625 249.1875 C250.56168427 250.67242447 250.56168427 250.67242447 250.56085205 252.18734741 C250.52040239 268.24246324 249.59365444 283.63514478 246.1875 299.375 C245.97319336 300.39207031 245.75888672 301.40914063 245.53808594 302.45703125 C242.34917301 317.21793827 237.8001575 331.36496417 232.1875 345.375 C231.72005371 346.54554932 231.72005371 346.54554932 231.24316406 347.73974609 C223.8866758 365.85071957 214.06173084 382.8595845 202.1875 398.375 C201.75614746 398.94766602 201.32479492 399.52033203 200.88037109 400.11035156 C194.15528438 409.02311708 186.92486946 417.32987968 179.1875 425.375 C178.48343018 426.11194092 178.48343018 426.11194092 177.76513672 426.86376953 C171.30933193 433.59092163 164.54678363 439.65740272 157.1875 445.375 C156.61966797 445.82456055 156.05183594 446.27412109 155.46679688 446.73730469 C139.97727134 458.97154491 123.1234848 469.13865202 105.1875 477.375 C104.47335937 477.7045166 103.75921875 478.0340332 103.0234375 478.37353516 C70.90702964 492.99797088 36.54733085 499.82288077 1.375 499.75 C0.38505035 499.74945618 -0.60489929 499.74891235 -1.62484741 499.74835205 C-17.67996324 499.70790239 -33.07264478 498.78115444 -48.8125 495.375 C-50.33810547 495.05354004 -50.33810547 495.05354004 -51.89453125 494.72558594 C-66.65543827 491.53667301 -80.80246417 486.9876575 -94.8125 481.375 C-95.59286621 481.06336914 -96.37323242 480.75173828 -97.17724609 480.43066406 C-115.28821957 473.0741758 -132.2970845 463.24923084 -147.8125 451.375 C-148.38516602 450.94364746 -148.95783203 450.51229492 -149.54785156 450.06787109 C-158.46061708 443.34278438 -166.76737968 436.11236946 -174.8125 428.375 C-175.30379395 427.90562012 -175.79508789 427.43624023 -176.30126953 426.95263672 C-183.02842163 420.49683193 -189.09490272 413.73428363 -194.8125 406.375 C-195.26206055 405.80716797 -195.71162109 405.23933594 -196.17480469 404.65429688 C-208.40904491 389.16477134 -218.57615202 372.3109848 -226.8125 354.375 C-227.1420166 353.66085937 -227.4715332 352.94671875 -227.81103516 352.2109375 C-242.43547088 320.09452964 -249.26038077 285.73483085 -249.1875 250.5625 C-249.18695618 249.57255035 -249.18641235 248.58260071 -249.18585205 247.56265259 C-249.14540239 231.50753676 -248.21865444 216.11485522 -244.8125 200.375 C-244.59819336 199.35792969 -244.38388672 198.34085938 -244.16308594 197.29296875 C-240.97417301 182.53206173 -236.4251575 168.38503583 -230.8125 154.375 C-230.50086914 153.59463379 -230.18923828 152.81426758 -229.86816406 152.01025391 C-222.5116758 133.89928043 -212.68673084 116.8904155 -200.8125 101.375 C-200.38114746 100.80233398 -199.94979492 100.22966797 -199.50537109 99.63964844 C-192.78028438 90.72688292 -185.54986946 82.42012032 -177.8125 74.375 C-177.10843018 73.63805908 -177.10843018 73.63805908 -176.39013672 72.88623047 C-169.93433193 66.15907837 -163.17178363 60.09259728 -155.8125 54.375 C-155.24466797 53.92543945 -154.67683594 53.47587891 -154.09179688 53.01269531 C-138.60227134 40.77845509 -121.7484848 30.61134798 -103.8125 22.375 C-102.74128906 21.8807251 -102.74128906 21.8807251 -101.6484375 21.37646484 C-69.53202964 6.75202912 -35.17233085 -0.07288077 0 0 Z " fill="#0C5BA2" transform="translate(249.8125,0.625)"/>
</svg>
